<svg width="375" height="725" viewBox="0 0 492 1100"  fill="none" xmlns="http://www.w3.org/2000/svg">
<path fill-rule="evenodd" clip-rule="evenodd" d="M358.2 390.159C354.018 373.932 350.173 367.052 342.744 361.411C335.796 356.136 325.654 351.705 310.854 348.468C295.44 345.772 295.003 337.756 291.138 324.873C290.011 321 284.423 319.969 282.012 322.761C281.672 322.394 281.317 322.057 280.95 321.754C281.279 319.906 278.591 314.612 278.681 312.845C279.618 294.403 273.589 285.142 258.541 281.7C255.269 280.951 233.041 280.51 229.85 281.392C215.901 285.251 202.169 297.503 204.27 312.262C199.891 317.987 195.606 321.482 188.851 323.326C178.331 324.663 183.615 473.783 201.886 563.122C209.725 601.454 397.17 536.212 388.7 517.014C389.901 513.495 387.712 509.628 388.7 505.994C389.415 503.364 391.246 502.276 392.167 499.672C393.464 496.008 392.054 491.091 390.594 487.352C389.995 485.488 391.695 483.482 392.167 481.581C394.407 472.611 389.278 473.402 385.58 467.405C385.635 467.387 386.597 463.106 386.592 463.127C387.159 460.071 385.74 456.155 384.503 453.604C383.667 451.88 381.875 450.801 380.095 450.999C381.888 444.91 384.155 439.844 386.592 433.979C390.903 423.639 395.003 412.823 401.194 403.465C403.729 399.633 401.681 396.108 397.579 395.847C384.3 395.003 371.167 393.09 358.2 390.159Z" fill="#AE5D29"/>
<path fill-rule="evenodd" clip-rule="evenodd" d="M337.471 391.413L307.16 442.74C307.16 442.74 314.351 443.459 317.261 444.857C320.171 446.256 333.532 463.252 333.532 463.252L335.655 472.611L330.625 480.156L332.587 484.894C332.587 484.894 333.986 481.684 337.471 479.193C340.956 476.701 348.641 472.611 348.641 472.611C348.641 472.611 346.087 471.244 346.087 469.639C346.087 468.034 343.837 461.187 348.641 458.6C353.444 456.014 378.266 449.96 378.266 449.96L403.422 396.865L337.471 391.413Z" fill="#EC7495"/>
<path fill-rule="evenodd" clip-rule="evenodd" d="M202.257 323.675L298.502 340.577L342.744 361.411L349.966 366.979L307.16 442.74L241.064 454.807L224.225 498.573L227.662 547.906L335.187 535.078L381.569 529.564L392.472 573.607L390.502 591.726L387.637 600.914L272.655 631.976C272.655 631.976 214.104 626.297 203.725 626.297C193.346 626.297 117.248 633.859 117.248 633.859L99.6416 631.976C99.6416 631.976 60.6863 590.894 54.6443 576.272C48.6024 561.651 35.5372 472.771 35.5372 472.771L36.9758 459.115L70.6322 372.448C70.6322 372.448 75.1266 368.365 80.7928 361.411C86.4591 354.458 202.257 323.675 202.257 323.675Z" fill="#252B48"/>
<path fill-rule="evenodd" clip-rule="evenodd" d="M376.451 448.866C367.753 449.308 359.046 451.377 351.178 455.127C347.959 456.663 345.042 458.881 344.188 462.53C343.756 464.393 343.861 466.318 344.091 468.2C344.264 469.626 344.308 471.445 345.545 472.41C345.756 472.574 345.982 472.698 346.217 472.79C343.314 474.1 340.551 475.675 338.094 477.298C335.85 478.781 333.542 481.067 332.506 483.645C332.419 483.352 332.333 483.079 332.247 482.819C330.481 477.596 327.761 473.318 323.477 470.442C322.99 468.668 317.769 461.032 312.919 461.32C307.608 461.632 303.337 462.021 298.534 464.465C296.783 464.426 295.036 464.45 293.31 464.527C293.012 464.537 293.027 464.94 293.31 464.973C294.711 465.152 296.112 465.348 297.512 465.578C300.842 466.112 304.162 466.788 307.409 467.628C311.305 468.637 315.335 469.65 318.977 471.412C326.038 474.835 330.409 483.784 329.512 491.571C329.363 492.848 328.869 496.708 327.098 496.31C325.602 495.974 325.007 492.848 324.484 491.691C323.083 488.619 320.56 486.612 317.533 485.253C313.978 483.654 310.173 482.574 306.488 481.317C304.402 480.601 302.315 479.886 300.223 479.175C298.083 478.441 296.049 477.427 293.77 477.941C292.393 478.253 292.235 479.895 293.008 480.837C294.183 482.272 295.929 482.694 297.623 483.285C299.858 484.062 302.089 484.841 304.32 485.618C307.769 486.818 311.382 487.831 314.745 489.3L314.64 489.54C314.366 489.464 314.044 489.737 314.097 490.073C314.601 493.18 315.302 496.771 314.524 499.882C313.91 502.35 311.746 505.082 308.935 504.356C309.377 503.953 309.54 503.257 309.242 502.614C308.129 500.232 293.545 490.832 292.245 494.323C292.202 494.447 292.335 494.538 292.441 494.52C293.55 494.289 295.406 496.18 296.293 496.78C297.574 497.645 298.874 498.49 300.141 499.378C301.528 500.348 302.881 501.366 304.2 502.417C305.236 503.243 306.018 504.102 307.208 504.52C306.585 504.817 306.09 505.369 305.879 506.075C305.342 507.914 304.306 509.474 302.507 510.286C300.621 511.131 298.496 510.598 296.51 510.805C293.804 511.078 291.444 512.365 289.472 514.204C285.331 518.073 283.254 524.891 277.464 526.72C274.004 527.81 270.166 527.123 266.664 526.628C262.754 526.076 258.945 525.639 255.006 526.216C251.235 526.768 247.671 528.074 244.226 529.668C240.997 531.161 237.428 532.851 234.564 535.078C233.974 533.259 233.379 531.458 232.928 529.6C231.863 525.208 231.287 520.733 231.148 516.22C231.019 511.923 231.258 507.607 231.627 503.329C231.81 501.193 232.098 499.066 232.28 496.929C232.328 496.391 232.424 495.815 232.496 495.24C237.61 492.219 242.983 489.906 248.4 487.524C248.414 487.52 248.429 487.51 248.443 487.505C248.611 487.428 248.774 487.356 248.942 487.284C248.937 487.274 248.933 487.265 248.923 487.255C249.542 486.876 249.974 486.372 250.233 485.805C258.038 480.625 264.563 473.553 269.428 465.305C271.467 461.848 273.429 458.262 276.096 455.233C278.936 452.001 282.309 450.081 286.483 449.082C291.362 447.911 296.39 447.21 301.389 446.811C304.119 446.596 307.169 446.259 310.144 446.274C312.217 446.288 314.246 446.465 316.108 446.979C318.866 447.738 320.478 449.836 322.21 451.958C323.865 453.994 325.511 456.034 327.056 458.156C328.518 460.168 329.901 462.246 331.1 464.426C331.82 465.732 332.486 467.077 333.048 468.464C333.244 468.954 333.504 469.51 333.623 470.019C333.743 470.533 333.523 471.076 334.098 471.076C331.724 471.109 330.145 477.035 332.506 476.896C335.824 476.703 337.493 472.721 336.843 469.189C335.682 462.886 329.417 455.275 328.178 453.662C325.438 450.1 322.613 445.452 318.228 443.796C318.166 443.772 318.099 443.749 318.036 443.729C319.312 442.519 320.32 441.07 321.284 439.595C322.277 438.078 323.462 436.34 323.789 434.54C323.995 433.393 322.57 432.739 321.893 433.743C320.91 435.207 320.435 437.06 319.701 438.669C318.953 440.301 318.041 441.842 317.321 443.489C315.59 442.956 313.718 442.712 311.814 442.63C314.217 439.375 318.324 433.095 318.818 432.288C321.092 428.553 323.256 424.703 325.324 420.847C327.559 416.67 329.474 412.32 331.613 408.095C332.827 405.7 334.05 403.285 335.399 400.961C335.864 400.164 336.363 399.367 336.929 398.642C337.039 398.499 337.178 398.379 337.308 398.244C337.457 398.162 337.61 398.071 337.697 398.023C338.473 397.577 338.747 396.54 339.294 395.882C340.167 394.821 341.194 394.696 342.509 394.681C345.31 394.653 348.122 394.763 350.919 394.84C355.03 394.955 359.137 395.118 363.243 395.334C364.486 395.402 365.724 395.469 366.966 395.546C372.939 395.901 378.907 396.367 384.861 396.938C390.129 397.442 395.397 398.263 400.669 398.657C393.53 415.629 385.614 432.293 376.652 448.377C376.561 448.539 376.494 448.703 376.451 448.866ZM336.843 492.589C335.691 493.118 334.573 493.775 333.532 494.524C333.705 493.358 333.748 492.128 333.7 490.894C334.559 491.816 335.658 492.344 336.843 492.589ZM385.993 463.394C385.912 463.404 385.835 463.447 385.797 463.528C384.204 466.817 384.87 470.49 387.471 473.068C388.834 474.412 391.803 475.929 391.707 478.138C391.625 479.924 389.683 481.422 388.853 482.896C388.08 484.269 387.792 485.776 388.411 487.265C389.203 489.171 391.415 489.929 392.173 491.802C393.132 494.178 391.573 497.045 390.479 499.114C389.462 501.029 388.147 502.945 387.274 504.971C381.426 508.001 368.156 513.502 366.558 513.81C364.611 514.189 362.658 514.549 360.7 514.886C356.944 515.538 353.178 516.143 349.403 516.676C347.253 516.978 345.099 517.276 342.945 517.511C341.064 517.713 338.944 517.987 337.428 516.571C334.372 513.709 336.085 508.913 338.018 506.022C338.056 505.965 338.056 505.912 338.042 505.864C339.865 505.437 341.683 504.937 343.497 504.587C346.985 503.915 350.496 503.349 354.013 502.845C361.238 501.812 368.511 501.13 375.774 500.444C377.573 500.271 377.592 497.439 375.774 497.607C365.339 498.562 354.853 499.469 344.557 501.481C341.976 501.98 339.414 502.546 336.867 503.185C335.662 503.483 334.372 503.949 333.11 503.963C333.033 503.963 332.956 503.963 332.88 503.958C330.409 503.882 330.049 501.764 331.407 500.002C331.575 499.786 331.748 499.57 331.925 499.364C334.324 496.502 337.312 494.591 340.392 492.613C343.842 492.143 347.282 491.096 350.66 490.328C358.998 488.427 367.336 486.525 375.679 484.629C377.314 484.254 376.619 481.739 374.983 482.108C368.65 483.544 362.318 484.979 355.984 486.415L346.716 488.518C344.864 488.935 342.551 489.776 340.373 490.079C339.299 490.227 338.258 490.246 337.318 490.026C334.281 489.306 334.127 485.508 335.437 483.251C336.905 480.717 339.678 479.132 342.139 477.696C346.404 475.204 350.943 473.414 355.375 471.349C356.162 471.176 356.949 471.004 357.736 470.831C362.313 469.823 367.542 469.328 371.85 467.48C373.141 466.932 372.435 464.897 371.159 464.925C367.815 464.998 364.318 466.188 361.051 466.894C357.515 467.662 353.975 468.425 350.439 469.189C350.084 469.266 347.982 469.938 347.666 469.789C347.464 469.693 347.392 468.992 347.325 468.531C347.109 467.014 346.951 465.42 347.186 463.898C347.704 460.484 350.549 458.881 353.428 457.57C359.837 454.656 366.866 452.832 373.86 452.102C375.472 451.934 377.084 451.829 378.706 451.775C380.61 451.718 382.179 451.382 383.144 453.259C384.66 456.216 385.494 460.019 385.993 463.394ZM377.092 570.623C375.695 565.789 376.075 560.628 375.119 555.698C374.625 553.154 373.951 550.631 373.215 548.148C372.621 546.142 371.63 544.008 371.518 541.915C371.511 541.775 371.676 541.695 371.789 541.759C373.76 542.888 375.273 545.329 376.396 547.245C377.742 549.538 378.769 551.938 379.597 554.462C381.249 559.49 382.604 565.555 380.475 570.623C379.841 572.131 377.615 572.433 377.092 570.623ZM322.588 607.214C320.507 605.761 318.99 603.729 317.225 601.936C315.49 600.173 318.203 597.457 319.939 599.221C321.445 600.75 322.753 602.661 324.525 603.898C325.378 604.493 325.773 605.569 325.214 606.526C324.72 607.37 323.439 607.808 322.588 607.214ZM310.982 551.356C314.781 549.712 318.517 547.922 322.494 546.738C324.87 546.029 325.876 549.737 323.514 550.441C319.852 551.532 316.418 553.159 312.919 554.672C310.673 555.644 308.721 552.334 310.982 551.356ZM270.86 550.205C269.931 547.911 273.646 546.923 274.561 549.185C275.615 551.788 276.823 554.324 277.877 556.927C278.805 559.221 275.092 560.21 274.176 557.949C273.122 555.345 271.914 552.809 270.86 550.205ZM231.259 596.017C230.64 596.842 229.608 597.29 228.633 596.706C227.817 596.216 227.318 594.914 227.945 594.078C229.774 591.638 231.627 589.228 233.771 587.052C235.51 585.289 238.222 588.007 236.485 589.768C234.571 591.711 232.893 593.837 231.259 596.017ZM225.596 338.973C227.358 340.177 228.901 341.64 230.406 343.145C232.156 344.895 229.442 347.611 227.692 345.861C226.424 344.592 225.145 343.304 223.659 342.29C222.801 341.703 222.416 340.612 222.971 339.662C223.468 338.811 224.74 338.388 225.596 338.973ZM283.21 400.78C282.214 402.776 281.318 404.732 281.261 407.001C281.201 409.472 277.363 409.473 277.424 407.001C277.497 404.032 278.591 401.458 279.896 398.841C281.001 396.627 284.31 398.575 283.21 400.78ZM304.349 351.141C306.413 349.764 308.332 353.093 306.287 354.457C304.629 355.563 302.971 356.67 301.313 357.776C299.25 359.152 297.331 355.824 299.375 354.459C301.033 353.353 302.691 352.247 304.349 351.141ZM212.661 437.931C212.309 440.371 208.611 439.327 208.96 436.91C209.5 433.174 210.158 429.487 211.171 425.848C211.834 423.467 215.535 424.484 214.872 426.869C213.859 430.508 213.201 434.195 212.661 437.931ZM199.205 481.927C196.734 481.875 196.734 478.034 199.205 478.087C201.44 478.134 203.638 478.723 205.795 479.261C208.193 479.861 207.17 483.564 204.774 482.965C202.951 482.509 201.095 481.968 199.205 481.927ZM194.237 570.555C193.389 570.968 192.518 571.34 191.66 571.733C189.942 572.519 188.225 573.306 186.508 574.094C182.932 575.737 179.358 577.386 175.787 579.04C168.639 582.351 161.436 585.545 154.27 588.821C146.963 592.161 139.675 595.546 132.396 598.948C128.967 600.55 125.512 602.094 122.063 603.654C119.115 604.988 115.47 607.32 112.233 607.539C112.067 607.551 112.011 607.34 112.106 607.232C113.329 605.84 115.279 605.03 116.887 604.126C118.528 603.201 120.201 602.332 121.866 601.45C125.336 599.61 128.811 597.784 132.315 596.009C139.324 592.459 146.347 588.935 153.371 585.416C160.535 581.826 167.689 578.212 174.916 574.75C178.318 573.12 181.724 571.495 185.132 569.874C186.978 568.997 188.825 568.121 190.672 567.246C191.47 566.868 192.259 566.46 193.075 566.122C194.159 565.673 194.982 565.765 196.1 565.489C197.923 565.038 198.712 567.358 197.313 568.368C196.161 569.2 195.554 569.912 194.237 570.555ZM168.615 609.938C168.221 608.98 169.046 607.816 169.956 607.576C171.045 607.288 171.919 607.951 172.316 608.917C173.369 611.478 174.867 613.828 176.796 615.813C178.521 617.587 175.808 620.304 174.082 618.529C171.665 616.041 169.928 613.134 168.615 609.938ZM149.765 548.287C148.015 546.537 150.73 543.821 152.479 545.572L157.453 550.549C159.203 552.3 156.488 555.016 154.739 553.265L149.765 548.287ZM98.7337 540.172C95.1576 541.222 90.9867 542.187 88.5486 545.24C88.4296 545.389 88.2295 545.197 88.301 545.049C91.4223 538.573 100.374 536.302 106.571 534.033C110.954 532.428 115.452 531.097 119.988 529.909C119.534 524.731 120.785 519.181 121.219 514.029C121.683 508.528 122.061 503.012 122.255 497.494C122.453 491.865 122.501 486.197 122.316 480.567C122.131 474.957 121.404 469.415 121.085 463.824C121.054 463.283 121.807 463.258 121.969 463.705C123.852 468.893 124.657 474.64 125.27 480.111C125.901 485.747 126.111 491.367 126.03 497.035C125.947 502.864 125.608 508.678 125.143 514.488C124.923 517.242 124.667 519.992 124.426 522.744C124.242 524.844 124.156 526.927 123.728 528.96C126.464 528.289 129.206 527.653 131.939 527.035C140.654 525.067 149.406 523.241 158.085 521.113C162.345 520.068 166.544 518.817 170.785 517.706C174.778 516.66 178.994 515.392 183.094 514.925C184.557 514.758 184.743 516.761 183.774 517.441C180.442 519.782 176.016 521.413 172.167 522.723C168.304 524.038 164.289 524.985 160.329 525.959C152.072 527.991 143.737 529.653 135.414 531.383C127.103 533.112 118.776 534.828 110.558 536.961C106.601 537.989 102.657 539.02 98.7337 540.172ZM79.1372 437.419C77.0004 438.674 75.0713 435.353 77.2005 434.102C79.9864 432.466 82.9556 431.237 85.9488 430.037C88.2458 429.117 89.2341 432.833 86.9692 433.741C84.2792 434.819 81.6406 435.949 79.1372 437.419ZM71.3998 580.113C69.2572 581.357 67.3267 578.036 69.463 576.797C72.4634 575.057 75.7492 573.895 78.8585 572.372C81.0706 571.288 83.0136 574.602 80.7953 575.689C77.6865 577.212 74.4001 578.373 71.3998 580.113ZM67.9196 499.113C69.9912 501.083 72.756 502.01 75.363 503.044C77.6361 503.945 76.6392 507.659 74.3426 506.748C71.0946 505.459 67.7863 504.282 65.2057 501.829C63.4104 500.122 66.1292 497.411 67.9196 499.113ZM90.8379 389.109C93.1153 390.003 92.1179 393.716 89.8175 392.813C87.2662 391.812 84.6314 391.049 82.08 390.048C79.8031 389.154 80.8001 385.441 83.1005 386.344C85.6518 387.345 88.2866 388.108 90.8379 389.109ZM131.268 345.416C133.688 345.008 134.719 348.709 132.289 349.12C129.274 349.629 126.305 350.225 123.446 351.332C121.137 352.226 120.146 348.511 122.425 347.629C125.285 346.522 128.254 345.925 131.268 345.416ZM144.627 451.799C142.408 450.707 144.355 447.396 146.564 448.483C148.891 449.628 151.303 450.513 153.843 451.054C156.261 451.57 155.231 455.272 152.823 454.758C149.964 454.149 147.244 453.087 144.627 451.799ZM157.244 391.875C159.633 391.22 160.644 394.926 158.264 395.579C154.079 396.726 149.769 397.323 145.552 398.344C143.149 398.926 142.133 395.222 144.532 394.641C148.749 393.619 153.059 393.023 157.244 391.875ZM210.768 373.07C213.198 373.52 212.162 377.221 209.748 376.774C207.178 376.298 204.574 376.291 201.968 376.289C199.494 376.288 199.499 372.447 201.968 372.448C204.928 372.45 207.85 372.53 210.768 373.07ZM385.331 393.136C379.061 392.536 372.781 392.056 366.491 391.696C366.198 391.681 365.911 391.662 365.618 391.647C365.585 391.58 365.541 391.517 365.498 391.45C363.445 388.435 361.934 385.421 360.624 382.011C359.372 378.766 358.158 375.42 356.229 372.491C354.03 369.155 351.06 366.544 347.805 364.281C345.831 365.61 343.999 367.165 342.323 368.814C340.559 370.548 337.844 367.833 339.609 366.098C341.098 364.633 342.688 363.279 344.369 362.056C342.428 360.876 340.448 359.767 338.517 358.664C331.277 354.531 323.865 350.709 316.3 347.214C312.783 345.586 309.223 344.141 305.639 342.676C303.71 341.89 301.806 340.876 299.878 339.964C300.017 338.6 299.609 337.074 298.563 336.176C297.791 335.518 297.191 335.273 296.27 334.808C296.064 334.736 295.939 334.692 295.881 334.668C295.924 334.678 296.049 334.716 296.255 334.784C296.745 335.01 296.783 334.942 296.371 334.587C296.347 333.809 294.816 332.167 294.466 331.366C293.247 328.614 292.868 325.705 291.069 323.199C288.589 319.747 284.425 318.441 280.543 319.612C280.141 315.459 280.035 311.124 278.471 307.418C278.428 307.317 278.289 307.274 278.226 307.384C276.595 310.164 276.456 313.26 276.331 316.468C276.211 319.478 276.326 322.555 276.72 325.546C276.47 325.738 276.216 325.921 275.952 326.098C274.715 326.915 273.381 327.544 271.98 328.01C269.312 328.893 266.516 329.277 263.719 329.411C256.498 329.757 249.057 329.027 241.957 327.788C234.775 326.535 223.765 324.653 217.374 321.057C213.157 318.686 209.267 315.791 205.322 312.987C206.753 308.378 207.117 303.423 205.678 299.529C205.505 299.064 204.776 298.977 204.637 299.529C203.735 303.246 203.471 306.981 202.272 310.654C202.253 310.706 202.233 310.764 202.214 310.817C201.84 310.563 201.466 310.313 201.092 310.063C200.228 309.492 199.053 309.919 198.534 310.735C190.249 323.799 177.128 324.548 163.349 326.882C148.27 329.435 133.115 332.191 118.617 337.189C104.752 341.971 91.5014 348.933 81.0044 359.332C78.6282 361.686 76.406 364.195 74.3085 366.814C76.3379 367.07 78.3504 367.468 80.3371 368.093C82.6893 368.832 81.6785 372.539 79.3167 371.796C76.7634 370.994 74.1819 370.596 71.5739 370.399C64.4414 380.163 58.8801 391.235 54.0711 402.133C44.8469 423.027 38.8427 445.279 36.0798 467.934C37.5968 467.024 39.1411 466.157 40.7238 465.351C42.923 464.232 44.8627 467.547 42.6611 468.668C40.2163 469.912 37.8415 471.284 35.5406 472.771C34.5355 482.688 34.1459 492.668 34.382 502.633C34.9433 526.388 38.1481 550.84 45.3971 573.506C48.9521 584.63 53.6633 595.663 60.6821 605.064C63.858 609.322 67.4658 613.162 71.7164 616.365C73.7745 617.92 75.9526 619.308 78.2506 620.479C81.2107 621.996 85.0679 622.496 87.6202 624.642C88.4598 625.348 89.1075 626.279 89.5968 627.33C89.3138 629.328 89.2802 631.33 89.8271 633.327C89.9998 633.951 90.47 634.46 91.0505 634.705C91.0601 634.878 91.0601 635.046 91.0601 635.209C91.0601 635.286 91.1752 635.305 91.1896 635.229C91.2136 635.079 91.2376 634.93 91.2616 634.777C91.4487 634.839 91.6454 634.868 91.8469 634.868C99.1343 634.896 106.431 634.718 113.728 634.47C113.164 632.741 112.553 631.026 111.966 629.296C111.169 626.946 114.877 625.947 115.667 628.275C116.353 630.297 117.071 632.302 117.709 634.331C125.528 634.04 133.344 633.691 141.146 633.433C157.741 632.88 174.331 632.698 190.93 632.348C216.708 631.801 242.673 630.682 268.49 631.777C269.383 629.88 270.382 628.027 271.33 626.157C272.448 623.949 275.758 625.895 274.644 628.096C273.985 629.395 273.303 630.679 272.655 631.976C277.884 632.248 283.107 632.607 288.32 633.097C297.214 633.932 306.023 635.415 314.908 636.338C323.942 637.278 332.779 637.111 341.741 635.617C343.353 635.349 344.303 634.373 344.696 633.164C344.71 633.159 344.72 633.15 344.729 633.135C345.19 632.597 345.622 632.151 346.068 631.762C346.601 631.417 347.176 631.123 347.853 630.864C349.115 630.384 350.429 630.091 351.763 629.894C353.231 629.674 354.718 629.654 356.186 629.472C357.424 629.314 358.633 629.078 359.842 628.79C362.015 628.272 364.078 627.595 366.132 626.697C367.921 625.915 369.537 624.791 371.063 623.566C374.22 621.257 376.954 618.31 379.344 615.246C380.735 613.455 382.045 611.597 383.235 609.663C385.307 606.311 387.073 602.831 388.857 599.321C389.505 598.281 390.096 597.216 390.636 596.129C387.149 595.1 383.627 594.262 379.93 594.203C377.458 594.163 377.459 590.322 379.93 590.362C384.17 590.43 388.181 591.421 392.167 592.602C392.361 592.086 392.547 591.566 392.719 591.039C393.194 589.94 393.588 588.812 393.914 587.669C394.106 587.15 394.298 586.632 394.49 586.113C394.922 584.318 395.353 582.517 395.79 580.717C396.658 577.836 397.344 574.913 397.848 571.95C398.27 570.001 398.596 568.037 398.817 566.05C399.489 561.234 400.036 556.429 400.074 551.56C400.017 548.56 399.825 545.564 399.498 542.582C399.359 540.556 399.124 538.54 398.808 536.538C398.395 533.561 397.987 530.614 397.301 527.675C396.788 525.688 396.274 523.7 395.761 521.712C394.48 517.569 392.969 513.507 391.227 509.537C391.132 509.288 390.646 508.74 390.354 508.735C390.134 508.73 389.826 508.932 389.927 509.201C389.937 509.225 389.946 509.253 389.956 509.277C389.855 509.052 389.759 508.821 389.659 508.596C389.572 508.385 389.236 507.962 388.977 507.967C388.963 507.967 388.948 507.967 388.929 507.972C388.997 507.924 389.059 507.861 389.121 507.79C390.844 505.749 391.961 503.065 393.194 500.703C394.216 498.754 395.181 496.699 395.459 494.495C395.703 492.561 395.373 490.654 394.159 489.089C392.777 487.308 390.177 486.473 391.621 483.899C393.262 480.971 395.675 478.431 393.271 475.104C392.048 473.409 390.11 472.478 388.67 471.004C387.015 469.299 386.228 467.019 386.272 464.69C386.372 464.748 386.507 464.719 386.555 464.575C387.946 460.369 386.938 455.751 385.514 451.655C384.736 449.433 383.09 448.823 381.177 448.713C389.466 432.509 397.224 416.046 404.138 399.204C404.368 398.652 404.593 398.1 404.818 397.548C405.155 396.722 404.445 395.623 403.624 395.44C397.647 394.129 391.419 393.712 385.331 393.136Z" fill="#FF9B50"/>
<path fill-rule="evenodd" clip-rule="evenodd" d="M315.769 192.447C314.631 177.687 316.394 162.216 310.719 148.187C300.824 124.909 273.079 117.147 251.568 108.285C242.951 105.732 213.954 105.375 203.864 101.995C181.028 94.3461 175.572 85.2325 157.427 99.7964C154.364 102.284 152.447 104.988 151.049 108.683L151.107 108.698C150.707 110.239 151.135 111.775 152.035 112.949C144.167 121.014 140.875 133.105 144.912 143.841C158.085 171.777 157.466 186.883 153.221 216.916C147.678 244.955 160.345 255.197 181.321 270.452C180.467 272.113 180.29 274.32 181.403 275.785C205.66 309.968 251.395 326.289 290.582 308.939C306.488 301.839 313.589 284.852 317.642 269.523C322.363 252.36 323.813 234.275 319.97 216.791C318.42 208.705 316.4 200.678 315.769 192.447Z" fill="#AE5D29"/>
<path fill-rule="evenodd" clip-rule="evenodd" d="M142.035 150.576L156.458 160.211L208.085 105.63L190.904 92.0689C190.904 92.0689 159.735 115.171 153.606 121.268C147.478 127.365 142.035 150.576 142.035 150.576Z" fill="#9FD8E5"/>
<path fill-rule="evenodd" clip-rule="evenodd" d="M175.853 28.9146C178.797 28.4712 181.021 30.3031 182.079 32.8852L182.134 33.0242C182.474 33.9028 182.852 34.7574 183.259 35.5976C190.627 31.9728 201.14 32.9042 205.803 40.245C209.13 45.4878 207.1 51.7099 205.846 57.2695L205.023 60.9327C206.614 61.9485 207.815 63.7675 207.758 65.6512L207.752 65.7962L207.416 70.9045C208.479 69.8242 209.451 68.648 210.318 67.3949C210.916 66.2955 211.562 65.2152 212.256 64.1686C216.34 58.0089 225.508 63.362 222.138 69.9587C221.491 71.231 220.764 72.436 219.983 73.5979C219.102 75.3118 218.38 77.0738 217.824 78.8838C219.418 79.58 220.644 81.1259 220.773 83.4592C221.075 88.9084 218.222 93.455 213.683 96.3116C212.347 97.1518 210.969 97.315 209.719 97.003C209.499 97.3006 209.279 97.5983 209.068 97.9008C210.878 99.3747 212.51 101.055 213.913 102.918C218.135 102.284 222.382 101.986 226.628 101.977C231.818 99.4275 238.032 99.4803 243.609 100.436C247.2 101.05 250.647 102.246 254.18 103.105C257.904 104.008 261.687 104.041 265.454 104.656C270.203 105.429 274.368 107.628 276.987 111.137C279.864 111.224 282.89 112.405 285.399 114.008C291.239 117.743 297.046 121.531 302.873 125.291C305.109 126.734 305.945 129.038 305.534 131.608L305.506 131.772L305.309 132.838L305.77 133.494C307.553 136.019 309.493 138.664 310.647 141.451C312.783 144.538 314.712 147.774 316.421 151.111C318.724 155.595 320.624 160.348 321.912 165.226C322.233 166.46 322.554 167.703 322.764 168.961C323.066 170.737 322.602 172.115 322.348 173.82C322.032 175.98 321.917 178.169 321.582 180.335C321.357 181.77 320.141 182.476 318.867 182.514C319.346 186.168 319.691 189.846 320.021 193.494C320.486 198.708 320.802 203.937 321.074 209.165C322.482 211.215 325.359 212.838 327.437 213.399C330.314 214.172 333.33 213.332 336.049 212.348C337.759 211.729 339.161 213.884 338.328 215.325C335.71 219.847 330.108 219.828 325.867 217.826C324.071 216.981 322.496 215.757 321.328 214.163C321.4 215.68 321.477 217.197 321.553 218.719L321.624 220.098C322.487 236.196 324.349 252.849 321.333 268.789C316.11 296.4 293.325 317.423 265.493 319.056C250.887 319.913 238.724 315.587 232.676 313.173C226.628 310.76 228.979 305.839 233.178 307.246C240.41 309.669 253.697 313.279 265.588 311.72C293.614 308.046 317.379 293.999 314.937 233.497C314.591 224.917 313.525 216.333 313.295 207.753C313.075 199.366 313.156 190.974 312.787 182.591L312.664 179.731C312.521 176.389 312.367 173.032 312.117 169.686C311.816 168.39 311.567 167.074 311.198 165.802C310.197 162.34 308.89 158.975 307.267 155.763C306.908 156.037 306.506 156.233 306.071 156.31C302.763 156.906 299.66 156.738 296.563 155.355C295.117 154.716 293.844 153.867 292.656 152.815C292.091 152.321 291.713 151.84 291.416 151.341C289.918 151.365 288.419 150.914 287.481 149.834C286.411 148.602 286.233 147.331 286.652 146.153L286.696 146.036L286.591 145.998C285.327 149.277 282.809 152.162 280.046 154.111C275.68 157.203 270.218 158.096 264.98 158.178C259.197 158.264 253.098 157.371 247.391 156.459C245.883 156.219 244.385 155.945 242.915 155.576C242.858 155.633 242.8 155.701 242.738 155.758C237.84 160.458 230.951 161.668 224.737 158.984C221.147 157.434 218.135 154.937 215.474 152.076C215.435 153.574 215.359 155.072 215.229 156.555L215.176 157.144C214.911 159.907 214.401 162.838 212.319 164.832C208.953 168.063 204.07 166.767 200.187 164.664C200.192 164.765 200.192 164.871 200.192 164.976C201.241 168.548 202.294 172.125 203.347 175.702L203.574 176.464C204.34 179.003 205.18 181.546 205.41 184.204C205.851 189.284 202.481 194.301 196.851 192.597C193.897 191.706 191.532 189.216 189.262 187.221L187.831 185.981C191.532 198.113 194.098 210.677 194.337 223.338C194.352 224.024 193.763 224.543 193.112 224.567C191.589 224.629 189.952 224.327 188.42 223.717C188.334 223.712 188.248 223.707 188.157 223.693C185.543 223.314 183.115 222.368 180.976 220.971C181.469 222.541 181.689 224.226 181.56 225.988C181.526 226.415 180.861 226.564 180.765 226.093C179.53 220.001 172.42 215.397 166.293 216.563C159.715 217.816 154.87 223.491 153.682 229.949C152.409 236.886 154.846 244.909 159.36 250.262C161.438 252.73 164.172 254.789 167.418 255.308C168.902 255.543 170.443 255.461 171.884 255.039C172.497 254.856 173.071 254.602 173.656 254.362C174.508 254.016 175.504 253.963 176.308 253.599C178.132 252.778 179.965 254.463 179.041 256.34C178.237 257.977 177.514 259.081 176.179 259.926C177.26 261.251 178.242 263.095 178.606 263.59C180.463 266.105 182.35 268.482 184.466 270.782C186.62 273.115 188.97 275.247 191.455 277.22L192.5 278.047C194.893 279.951 196.977 281.715 198.665 284.445C199.996 286.601 198.272 289.525 195.778 289.491C187.975 289.381 182.302 282.506 178.261 276.5C177.687 275.64 177.146 274.733 176.643 273.801C176.461 274.094 176.26 274.368 176.035 274.618L176.48 275.818C177.801 279.351 172.109 281.661 170.458 278.362C169.256 275.971 167.863 273.696 166.312 271.545C165.397 271.415 164.502 270.858 164.004 270.138C162.745 268.309 161.333 266.461 160.141 264.511C159.48 263.882 158.8 263.278 158.106 262.687C157.905 262.865 157.699 263.042 157.503 263.229C156.632 265.222 155.554 267.042 154.219 268.755L153.932 269.121C151.373 272.355 148.04 275.665 143.916 276.456C142.657 276.696 141.446 275.126 142.561 274.123C145.448 271.521 148.862 269.749 151.523 266.845C152.835 265.414 154.039 263.838 155.074 262.186L155.31 261.804C155.483 261.52 155.66 261.237 155.842 260.949C154.64 260.128 153.438 259.302 152.237 258.476C148.929 261.311 144.621 262.607 140.962 264.955L140.598 265.193C137.29 267.411 133.805 262.505 136.457 259.811C139.381 256.853 141.822 253.326 144.412 250.038C143.194 247.788 142.617 245.128 142.401 242.44C142.316 241.679 142.25 240.917 142.183 240.156C140.326 240.184 138.458 239.546 136.879 238.447L136.28 238.019C134.36 238.634 132.345 238.931 130.416 238.879C125.877 238.744 124.02 233.545 126.859 230.256C129.755 226.895 134.825 226.161 138.841 227.793C138.971 227.726 139.105 227.654 139.234 227.582C139.043 226.698 139.085 225.897 139.303 225.193L139.24 224.764C138.357 223.405 137.776 221.853 137.556 220.214C137.381 218.915 137.417 217.628 137.716 216.345C137.816 215.919 138.023 215.476 138.182 215.031C137.855 214.205 137.663 213.35 137.604 212.491C137.513 212.382 137.422 212.27 137.335 212.149C135.342 209.343 135.745 205.961 137.642 203.69C137.65 203.546 137.664 203.401 137.683 203.258C137.572 203.007 137.47 202.754 137.377 202.498C135.524 200.623 134.164 198.367 134.417 195.572C134.566 193.927 135.24 192.446 136.261 191.34C136.08 190.803 136.062 190.181 136.282 189.662C134.653 185.319 134.859 180.088 136.031 175.231C135.773 174.492 135.639 173.69 135.667 172.84C135.801 169.235 138.913 165.922 142.6 165.965C143.043 165.969 143.459 166.027 143.858 166.112L143.863 166.026C144.005 164.944 144.302 163.944 144.735 163.047C144.522 162.969 144.325 162.858 144.152 162.711C141.79 163.975 139.29 164.941 136.669 165.599C134.743 166.083 132.769 163.886 133.966 162.072C134.522 161.231 135.136 160.475 135.796 159.785C134.857 159.79 133.903 159.854 132.939 159.978C131.206 160.204 129.271 159.018 128.146 157.414C126.748 158.778 125.346 160.137 123.943 161.495C120.391 164.947 115.024 162.408 114.464 157.856C113.406 157.573 112.42 157.093 111.553 156.406C105.952 158.845 99.9246 160.185 93.7632 160.439C89.3396 160.622 86.7544 155.456 88.8226 151.807C90.2109 149.358 91.9344 147.159 93.9212 145.249C90.8381 146.194 87.6545 146.876 84.4038 147.313C82.6468 147.548 80.1622 146.089 79.4584 144.471C76.7679 138.249 76.9977 131.763 80.0951 125.708C80.2148 125.468 80.3489 125.238 80.4781 125.007C80.7989 124.206 81.1484 123.414 81.5266 122.636C77.7158 118.651 77.3855 112.726 79.4393 107.767C78.6158 106.427 78.2999 104.814 78.86 103.355C80.4542 99.1538 82.7521 95.2746 85.6533 91.9427C85.3756 91.4049 85.1315 90.8336 84.9256 90.2191C83.2931 85.25 85.1842 79.2535 88.9997 75.7919C91.3982 73.6123 94.1558 72.3064 97.1 71.471C98.34 69.2721 99.9342 67.2893 101.792 65.6185C101.864 65.4601 101.935 65.3017 102.017 65.1432C104.908 59.6796 110.174 56.751 115.819 56.0741C116.039 53.9376 117.475 51.8971 119.563 51.2346C120.137 49.3862 120.994 47.6194 122.172 46.0159C124.024 43.4905 127.103 42.2999 130.004 43.9562C131.593 44.8636 133.116 45.9054 134.542 47.0577C135.183 46.7563 135.91 46.5613 136.729 46.4991L136.936 46.4864L141.656 46.2463C143.634 45.3677 145.606 44.4459 147.583 43.5481C148.771 42.5639 150.097 41.7429 151.542 41.1332C153.18 40.4467 154.855 40.0578 156.536 39.9281C157.9 39.4816 159.274 39.088 160.672 38.7807C163.956 38.0605 167.394 37.6573 170.802 37.6909C170.872 36.8061 170.907 35.9107 170.9 35.0048L170.893 34.551C170.817 31.6463 173.129 29.3274 175.853 28.9146ZM172.545 261.309C172.076 261.41 171.602 261.492 171.128 261.549C171.271 261.904 171.415 262.26 171.554 262.615C171.937 262.831 172.325 263.037 172.712 263.229C172.598 262.577 172.531 261.919 172.545 261.309ZM147.949 253.979L147.63 254.567C147.579 254.663 147.528 254.758 147.478 254.852C148.153 254.799 148.833 254.813 149.503 254.89L149.501 254.819C149.415 254.789 149.329 254.762 149.246 254.722C148.784 254.499 148.354 254.25 147.949 253.979ZM161.242 227.164C165.477 227.411 169.066 228.063 172.918 229.921L173.249 230.083C176.652 231.778 182.282 234.908 181.809 239.397C181.674 240.674 180.751 242.019 179.295 241.918C175.307 241.644 173.028 237.611 170.328 235.095C167.604 232.56 164.258 229.954 160.959 228.211C160.493 227.965 160.677 227.189 161.184 227.164L161.242 227.164ZM142.035 168.02C141.02 168.054 141.36 169.043 141.881 168.217C141.925 168.15 141.977 168.082 142.035 168.02ZM196.82 101.995C187.208 102.249 177.534 107.94 170.333 113.693C164.069 118.698 158.659 124.652 153.87 131.068C152.637 134.264 151.579 137.526 150.686 140.812C150.097 142.983 149.728 145.177 149.235 147.366L149.082 148.037C148.694 148.763 148.407 149.544 148.197 150.351C149.07 151.229 150.202 151.857 151.449 152.155C151.85 152.251 152.184 152.459 152.448 152.735C153.451 151.055 154.328 149.283 154.839 147.404L154.857 147.317C156.786 144.149 158.881 141.079 161.127 138.114C167.322 129.929 174.144 122.468 182.345 116.26C188.564 111.555 195.515 107.868 202.907 105.472C201.097 104.008 199.043 102.85 196.82 101.995Z" fill="black"/>
<path fill-rule="evenodd" clip-rule="evenodd" d="M283.807 280.02C280.273 281.044 276.479 281.135 272.877 280.078C269.609 279.118 266.254 277.006 263.85 274.212C261.713 271.729 260.33 268.713 260.384 265.493C260.39 265.125 260.522 264.818 260.724 264.58C260.941 264.323 261.245 264.147 261.571 264.07C261.906 263.992 262.26 264.02 262.561 264.157C262.834 264.281 263.068 264.491 263.214 264.799C263.584 265.285 263.952 265.764 264.321 266.229C267.293 269.901 270.171 272.645 274.639 273.63C277.063 274.164 279.485 273.927 281.707 273.112C284.085 272.24 286.235 270.706 287.919 268.743C288.681 267.856 289.579 267.494 290.458 267.488C291.454 267.481 292.439 267.944 293.18 268.684C293.909 269.412 294.397 270.401 294.442 271.435C294.481 272.343 294.185 273.291 293.397 274.137C290.804 276.924 287.443 278.966 283.807 280.02ZM283.698 234.03C287.321 236.233 292.841 241.372 288.943 246.835C284.356 251.652 277.751 246.129 274.496 243.631C271.478 241.695 268.087 246.674 270.887 248.935C294.407 266.36 303.951 234.606 285.53 231.438C283.502 231.089 282.749 233.348 283.698 234.03ZM249.808 224.333C248.644 223.588 247.274 223.332 245.756 224.023C244.57 224.563 242.489 226.362 241.042 228.728C240.051 230.347 239.348 232.246 239.495 234.223C239.529 234.683 239.359 235.021 239.092 235.272C238.88 235.47 238.575 235.615 238.217 235.66C237.912 235.699 237.572 235.664 237.295 235.578C236.768 235.413 236.489 235.071 236.384 234.792C235.37 232.097 235.807 229.091 236.943 226.378C238.477 222.717 241.261 219.651 243.086 218.662C246.208 216.97 249.891 216.892 253.018 218.616C255.679 220.083 257.343 222.452 258.998 224.867C259.35 225.381 259.699 225.89 260.06 226.391C260.783 227.394 260.855 228.389 260.575 229.242C260.265 230.187 259.474 230.985 258.484 231.402C257.57 231.788 256.509 231.842 255.569 231.446C254.776 231.111 254.048 230.458 253.587 229.351C252.811 227.485 251.518 225.427 249.808 224.333V224.333ZM308.946 228.483C308.148 228.899 307.524 229.024 306.64 228.759C306.151 228.612 305.667 228.33 305.289 227.951C304.913 227.576 304.643 227.109 304.538 226.591C304.279 225.313 303.58 224.116 302.584 223.336C301.733 222.67 300.658 222.316 299.467 222.516C298.181 222.731 296.956 223.556 296.112 224.529C295.83 224.855 295.609 225.224 295.386 225.592C294.971 226.279 294.567 226.917 293.993 227.421C293.776 227.613 293.448 227.746 293.131 227.746C293.002 227.746 292.871 227.725 292.747 227.686C291.467 226.401 291.221 225.426 291.262 224.458C291.305 223.444 291.705 222.417 292.351 221.459C293.865 219.211 296.742 217.368 298.683 216.95C301.341 216.379 303.98 217.065 306.097 218.551C308.275 220.079 309.888 222.453 310.391 225.127C310.512 225.772 310.461 226.467 310.216 227.07C309.976 227.659 309.559 228.163 308.946 228.483ZM255.671 200.367C254.076 201.923 252.188 202.163 250.278 202.378C249.216 202.498 248.369 202.595 247.535 202.783C245.244 203.301 242.979 204.08 240.912 205.203C238.752 206.377 236.398 207.792 234.705 209.606C234.302 210.037 233.922 210.49 233.542 210.944C233.195 211.358 232.861 211.756 232.51 212.14C232.105 212.581 231.722 213.044 231.34 213.505C231.104 213.894 231.057 213.99 231.01 214.089C230.938 214.239 230.855 214.407 230.76 214.586C230.63 214.833 230.477 215.102 230.317 215.346C230.052 215.793 229.909 215.916 229.786 215.971C229.582 216.062 229.388 216.107 229.2 216.083C229.023 216.06 228.857 215.975 228.693 215.836C227.874 215.144 227.633 214.008 227.658 212.801C227.695 210.971 228.37 208.944 228.992 207.698C230.438 204.803 232.444 201.794 234.855 199.633C237.607 197.167 240.618 195.3 244.076 194.013C246.225 193.213 248.713 192.479 251.054 192.572C252.739 192.639 254.348 193.14 255.677 194.392C256.493 195.161 256.884 196.254 256.884 197.346C256.884 198.46 256.477 199.581 255.671 200.367ZM312.19 214.609C312.088 214.776 311.948 214.891 311.792 214.959C311.628 215.032 311.445 215.052 311.27 215.023C311.095 214.993 310.929 214.914 310.797 214.793C310.671 214.677 310.575 214.523 310.532 214.334C309.473 209.68 307.416 206.216 303.027 203.983C300.868 202.884 298.385 202.186 296.035 201.63C295.352 201.468 294.63 201.363 293.904 201.257C291.626 200.924 289.331 200.543 287.847 198.7C286.952 197.591 286.576 196.171 286.789 194.873C286.988 193.651 287.702 192.53 289 191.858C292.23 190.187 296.243 191.827 299.505 193.224C299.747 193.328 299.984 193.429 300.217 193.528C303.407 194.875 306.316 196.653 308.707 199.197C310.605 201.215 312.363 204.198 313.071 207.266C313.66 209.819 313.521 212.426 312.19 214.609Z" fill="black"/>
</svg>
